<?xml version="1.0" encoding="UTF-8"?>
<svg xmlns="http://www.w3.org/2000/svg" viewBox="0 0 1024 1024" width="1024" height="1024" aria-labelledby="title desc" role="img">
  <title>S1VAULT — Icône d’application</title>
  <desc>Icône carrée coins 20%, fond sombre, glow cyan interne, symbole bouclier+cadenas</desc>
  <defs>
    <linearGradient id="bg" x1="0%" y1="0%" x2="0%" y2="100%">
      <stop offset="0%" stop-color="#0A0F1F"/>
      <stop offset="100%" stop-color="#0B1020"/>
    </linearGradient>
    <radialGradient id="glow" cx="50%" cy="40%" r="60%">
      <stop offset="0%" stop-color="#14FFEC" stop-opacity="0.25"/>
      <stop offset="60%" stop-color="#15E3FF" stop-opacity="0.12"/>
      <stop offset="100%" stop-color="#15E3FF" stop-opacity="0"/>
    </radialGradient>
    <linearGradient id="accent" x1="0%" y1="0%" x2="100%" y2="0%">
      <stop offset="0%" stop-color="#14FFEC"/>
      <stop offset="100%" stop-color="#15E3FF"/>
    </linearGradient>
    <linearGradient id="glass" x1="0%" y1="0%" x2="0%" y2="100%">
      <stop offset="0%" stop-color="#FFFFFF" stop-opacity="0.10"/>
      <stop offset="100%" stop-color="#FFFFFF" stop-opacity="0"/>
    </linearGradient>
    <filter id="innerSoft" x="-20%" y="-20%" width="140%" height="140%">
      <feGaussianBlur stdDeviation="18" result="b"/>
    </filter>
  </defs>

  <!-- Fond -->
  <rect x="0" y="0" width="1024" height="1024" rx="205" ry="205" fill="url(#bg)"/>
  <!-- Glow interne doux -->
  <rect x="0" y="0" width="1024" height="1024" rx="205" ry="205" fill="url(#glow)"/>

  <!-- Symbole bouclier + cadenas (centré) -->
  <g transform="translate(0,0)">
    <g fill="none" stroke="url(#accent)" stroke-width="26" stroke-linecap="round" stroke-linejoin="round">
      <!-- Bouclier -->
      <path d="M512 188 L702 264 V458c0 168-96 264-190 324c-94-60-190-156-190-324V264L512 188z"/>
      <!-- Corps du cadenas -->
      <rect x="412" y="440" width="200" height="150" rx="36"/>
      <!-- Anse -->
      <path d="M452 440v-28a60 60 0 0 1 120 0v28"/>
      <!-- Trou de serrure -->
      <circle cx="512" cy="516" r="16" fill="#14FFEC" stroke="none"/>
    </g>
  </g>

  <!-- Lueur interne supplémentaire derrière le symbole -->
  <ellipse cx="512" cy="480" rx="260" ry="200" fill="url(#glow)" filter="url(#innerSoft)"/>

  <!-- Reflet verre subtil en haut -->
  <path d="M128 220 Q512 80 896 220 L896 330 Q512 210 128 330 Z" fill="url(#glass)"/>

  <!-- Bordure discrète -->
  <rect x="6" y="6" width="1012" height="1012" rx="200" ry="200" fill="none" stroke="#1A2440" stroke-width="12"/>
</svg>
